<svg width="1350" height="356" viewBox="0 0 1350 356" fill="none" xmlns="http://www.w3.org/2000/svg">
<path d="M94.7735 20.9838V337.5H31.2888V20.9838H94.7735ZM377.879 116.211C370.623 102.909 360.647 92.7819 347.95 85.8288C335.253 78.8758 320.44 75.3992 303.511 75.3992C284.768 75.3992 268.141 79.6315 253.63 88.0961C239.119 96.5608 227.783 108.653 219.621 124.373C211.458 140.093 207.377 158.232 207.377 178.788C207.377 199.95 211.458 218.391 219.621 234.111C228.085 249.831 239.724 261.923 254.537 270.388C269.35 278.852 286.582 283.085 306.232 283.085C330.416 283.085 350.218 276.736 365.635 264.039C381.053 251.04 391.18 233.053 396.017 210.077H287.186V161.557H458.595V216.879C454.363 238.948 445.293 259.353 431.387 278.097C417.481 296.84 399.494 311.955 377.425 323.443C355.659 334.628 331.172 340.221 303.964 340.221C273.431 340.221 245.77 333.419 220.981 319.815C196.494 305.909 177.146 286.712 162.938 262.225C149.032 237.738 142.079 209.926 142.079 178.788C142.079 147.651 149.032 119.838 162.938 95.3515C177.146 70.5623 196.494 51.3657 220.981 37.7619C245.77 23.8558 273.28 16.9027 303.511 16.9027C339.183 16.9027 370.17 25.6696 396.471 43.2034C422.771 60.435 440.91 84.7708 450.886 116.211H377.879ZM776.28 337.5H712.796L569.048 120.292V337.5H505.564V20.5304H569.048L712.796 238.192V20.5304H776.28V337.5ZM902.502 72.225V151.581H1009.07V201.915H902.502V285.805H1022.67V337.5H839.017V20.5304H1022.67V72.225H902.502ZM1259.03 337.5L1143.85 196.473V337.5H1080.36V20.9838H1143.85V162.917L1259.03 20.9838H1335.66L1205.06 177.882L1339.29 337.5H1259.03Z" fill="url(#paint0_linear_3408_3661)"/>
<defs>
<linearGradient id="paint0_linear_3408_3661" x1="761" y1="-55" x2="761" y2="306" gradientUnits="userSpaceOnUse">
<stop stop-color="white"/>
<stop offset="1" stop-color="#00979E" stop-opacity="0"/>
</linearGradient>
</defs>
</svg>
